<svg width="200" height="200" viewBox="0 0 200 200" fill="none" xmlns="http://www.w3.org/2000/svg">
  <rect width="200" height="200" fill="#F3F4F6"/>
  <path d="M100 70C89.5066 70 81 78.5066 81 89C81 99.4934 89.5066 108 100 108C110.493 108 119 99.4934 119 89C119 78.5066 110.493 70 100 70ZM100 102C92.832 102 87 96.168 87 89C87 81.832 92.832 76 100 76C107.168 76 113 81.832 113 89C113 96.168 107.168 102 100 102Z" fill="#9CA3AF"/>
  <path d="M100 50C77.3645 50 59 68.3645 59 91C59 104.039 64.9837 115.863 74.5 123.5L74.5355 123.527C74.5355 123.527 74.5355 123.527 74.5355 123.527C81.0905 129.352 90.1837 133 100 133C109.816 133 118.91 129.352 125.464 123.527C125.464 123.527 125.464 123.527 125.464 123.527L125.5 123.5C135.016 115.863 141 104.039 141 91C141 68.3645 122.635 50 100 50ZM100 127C82.9837 127 69 113.016 69 96C69 78.9837 82.9837 65 100 65C117.016 65 131 78.9837 131 96C131 113.016 117.016 127 100 127Z" fill="#9CA3AF"/>
  <path d="M100 40C71.8 40 49 62.8 49 91C49 119.2 71.8 142 100 142C128.2 142 151 119.2 151 91C151 62.8 128.2 40 100 40ZM100 136C75.1 136 55 115.9 55 91C55 66.1 75.1 46 100 46C124.9 46 145 66.1 145 91C145 115.9 124.9 136 100 136Z" fill="#9CA3AF"/>
</svg> 